<?xml version="1.0" encoding="UTF-8" standalone="no"?>
<!DOCTYPE svg PUBLIC "-//W3C//DTD SVG 1.1//EN"
 "http://www.w3.org/Graphics/SVG/1.1/DTD/svg11.dtd">
<!-- Generated by graphviz version 2.38.0 (20140413.2041)
 -->
<!-- Title: snakemake_dag Pages: 1 -->
<svg width="168pt" height="188pt"
 viewBox="0.00 0.00 168.00 188.00" xmlns="http://www.w3.org/2000/svg" xmlns:xlink="http://www.w3.org/1999/xlink">
<g id="graph0" class="graph" transform="scale(1 1) rotate(0) translate(4 184)">
<title>snakemake_dag</title>
<polygon fill="white" stroke="none" points="-4,4 -4,-184 164,-184 164,4 -4,4"/>
<!-- 0 -->
<g id="node1" class="node"><title>0</title>
<path fill="none" stroke="#56d88a" stroke-width="2" d="M95,-36C95,-36 65,-36 65,-36 59,-36 53,-30 53,-24 53,-24 53,-12 53,-12 53,-6 59,-0 65,-0 65,-0 95,-0 95,-0 101,-0 107,-6 107,-12 107,-12 107,-24 107,-24 107,-30 101,-36 95,-36"/>
<text text-anchor="middle" x="80" y="-15.5" font-family="sans" font-size="10.00">all</text>
</g>
<!-- 1 -->
<g id="node2" class="node"><title>1</title>
<path fill="none" stroke="#56c1d8" stroke-width="2" d="M100.5,-108C100.5,-108 59.5,-108 59.5,-108 53.5,-108 47.5,-102 47.5,-96 47.5,-96 47.5,-84 47.5,-84 47.5,-78 53.5,-72 59.5,-72 59.5,-72 100.5,-72 100.5,-72 106.5,-72 112.5,-78 112.5,-84 112.5,-84 112.5,-96 112.5,-96 112.5,-102 106.5,-108 100.5,-108"/>
<text text-anchor="middle" x="80" y="-87.5" font-family="sans" font-size="10.00">cellranger</text>
</g>
<!-- 1&#45;&gt;0 -->
<g id="edge1" class="edge"><title>1&#45;&gt;0</title>
<path fill="none" stroke="grey" stroke-width="2" d="M80,-71.6966C80,-63.9827 80,-54.7125 80,-46.1124"/>
<polygon fill="grey" stroke="grey" stroke-width="2" points="83.5001,-46.1043 80,-36.1043 76.5001,-46.1044 83.5001,-46.1043"/>
</g>
<!-- 2 -->
<g id="node3" class="node"><title>2</title>
<path fill="none" stroke="#d85656" stroke-width="2" d="M148,-180C148,-180 12,-180 12,-180 6,-180 0,-174 0,-168 0,-168 0,-156 0,-156 0,-150 6,-144 12,-144 12,-144 148,-144 148,-144 154,-144 160,-150 160,-156 160,-156 160,-168 160,-168 160,-174 154,-180 148,-180"/>
<text text-anchor="middle" x="80" y="-165" font-family="sans" font-size="10.00">cellranger_samples</text>
<text text-anchor="middle" x="80" y="-154" font-family="sans" font-size="10.00">sample: pbmc_1k_protein_v3</text>
</g>
<!-- 2&#45;&gt;1 -->
<g id="edge2" class="edge"><title>2&#45;&gt;1</title>
<path fill="none" stroke="grey" stroke-width="2" d="M80,-143.697C80,-135.983 80,-126.712 80,-118.112"/>
<polygon fill="grey" stroke="grey" stroke-width="2" points="83.5001,-118.104 80,-108.104 76.5001,-118.104 83.5001,-118.104"/>
</g>
</g>
</svg>
